# AST/ASF file generated using VICON BodyLanguage
# -----------------------------------------------
:version 1.10
:name VICON
:units
  mass 1.0
  length 0.45
  angle deg
:documentation
   .ast/.asf automatically generated from VICON data using
   VICON BodyBuilder and BodyLanguage model FoxedUp or BRILLIANT.MOD
:root
   order TX TY TZ RX RY RZ
   axis XYZ
   position 0 0 0  
   orientation 0 0 0 
:bonedata
  begin
     id 1 
     name lhipjoint
     direction 0.621036 -0.695554 0.361275 
     length 2.46325 
     axis 0 0 0  XYZ
  end
  begin
     id 2 
     name lfemur
     direction 0.34202 -0.939693 0  
     length 6.54784  
     axis 0 0 20  XYZ
    dof rx ry rz
    limits (-160.0 20.0)
           (-70.0 70.0)
           (-60.0 70.0)
  end
  begin
     id 3 
     name ltibia
     direction 0.34202 -0.939693 0   
     length 7.84737   
     axis 0 0 20   XYZ
    dof rx
    limits (-10.0 170.0)
  end
  begin
     id 4 
     name lfoot
     direction 0.0790693 -0.217241 0.97291   
     length 2.59747   
     axis -90 7.62852e-016 20   XYZ
    dof rx rz
    limits (-45.0 90.0)
           (-70.0 20.0)
  end
  begin
     id 5 
     name ltoes
     direction 1.53572e-011 -4.21898e-011 1   
     length 1.29919   
     axis -90 7.62852e-016 20   XYZ
    dof rx
    limits (-90.0 20.0)
  end
  begin
     id 6 
     name rhipjoint
     direction -0.602353 -0.708375 0.367935   
     length 2.41867  
     axis 0 0 0  XYZ 
  end
  begin
     id 7 
     name rfemur
     direction -0.34202 -0.939693 0   
     length 6.92065   
     axis 0 0 -20   XYZ
    dof rx ry rz
    limits (-160.0 20.0)
           (-70.0 70.0)
           (-70.0 60.0)
  end
  begin
     id 8 
     name rtibia
     direction -0.34202 -0.939693 0   
     length 7.88883   
     axis 0 0 -20   XYZ
    dof rx
    limits (-10.0 170.0)
 end
 begin
     id 9 
     name rfoot
     direction -0.0768692 -0.211196 0.974416   
     length 2.43714  
     axis -90 -7.62852e-016 -20   XYZ
    dof rx rz
    limits (-45.0 90.0)
           (-20.0 70.0)
  end
  begin
     id 10 
     name rtoes
     direction -1.53575e-011 -4.21933e-011 1   
     length 1.22113   
     axis -90 -7.62852e-016 -20   XYZ
    dof rx
    limits (-90.0 20.0)
  end
  begin
     id 11 
     name lowerback
     direction 0.0197937 0.98943 -0.143655   
     length 2.16931   
     axis 0 0 0   XYZ
    dof rx ry rz
    limits (-20.0 45.0)
           (-30.0 30.0)
           (-30.0 30.0)
  end
  begin
     id 12 
     name upperback
     direction -0.00183968 0.999975 0.00684288   
     length 2.17221   
     axis 0 0 0   XYZ
    dof rx ry rz
    limits (-20.0 45.0)
           (-30.0 30.0)
           (-30.0 30.0)
  end
  begin
     id 13 
     name thorax
     direction -0.00950244 0.997208 0.0740685   
     length 2.22549   
     axis 0 0 0   XYZ
    dof rx ry rz
    limits (-20.0 45.0)
           (-30.0 30.0)
           (-30.0 30.0)
  end
  begin
     id 14 
     name lowerneck
     direction 0.0218238 0.996215 0.0841425   
     length 1.77269   
     axis 0 0 0   XYZ
    dof rx ry rz
    limits (-20.0 45.0)
           (-30.0 30.0)
           (-30.0 30.0)
  end
  begin
     id 15 
     name upperneck
     direction -0.00430652 0.994214 -0.107332   
     length 1.76534   
     axis 0 0 0   XYZ
    dof rx ry rz
    limits (-20.0 45.0)
           (-30.0 30.0)
           (-30.0 30.0)
  end
  begin
     id 16
     name head
     direction -0.00328946 0.998959 -0.0454998  
     length 1.82634  
     axis 0 0 0   XYZ
    dof rx ry rz
    limits (-20.0 45.0)
           (-30.0 30.0)
           (-30.0 30.0)
  end
  begin
     id 17 
     name lclavicle
     direction 0.970962 0.239191 0.00450212  
     length 3.84872  
     axis 0 0 0   XYZ
    dof ry rz
    limits (-20.0 10.0)
           (0.0 20.0)
  end
  begin
     id 18 
     name lhumerus
     direction 1 -4.48966e-011 5.74696e-028   
     length 5.22771   
     axis 180 -30 -90   XYZ
    dof rx ry rz
    limits (-60.0 90.0)
           (-90.0 90.0)
           (-90.0 90.0)
  end
  begin
     id 19
     name lradius
     direction 1 -4.4896e-011 4.25109e-027   
     length 3.45251   
     axis 180 -30 -90   XYZ
    dof rx
    limits (-10.0 170.0)
  end
  begin
     id 20
     name lwrist
     direction 1 -4.48971e-011 1.15382e-027   
     length 1.72626   
     axis -5.52449e-016 90 90   XYZ
    dof ry
    limits (-180.0 0.0)
 end
  begin
     id 21 
     name lhand
     direction 1 -4.49034e-011 2.30765e-027   
     length 0.552119   
     axis -1.47248e-015 90 90   XYZ
    dof rx rz
    limits (-90.0 90.0)
           (-45.0 45.0)
  end
  begin
     id 22 
     name lfingers
     direction 1 -4.48951e-011 4.61529e-027   
     length 0.445133   
     axis -2.94495e-015 90 90   XYZ
    dof rx
    limits (0.0 90.0)
  end
  begin
     id 23
     name lthumb
     direction 0.707107 -6.34991e-011 0.707107   
     length 0.639124   
     axis -90 45 2.85299e-015   XYZ
    dof rx rz
    limits (-45.0 45.0)
           (-45.0 45.0)
  end
  begin
     id 24 
     name rclavicle
     direction -0.97424 0.222511 -0.0366699   
     length 3.73439  
     axis 0 0 0   XYZ 
    dof ry rz
    limits (-10.0 20.0)
           (-20.0 0.0)
  end
  begin
     id 25 
     name rhumerus
     direction -1 -4.48956e-011 -4.97258e-028  
     length 5.2398   
     axis 180 30 90   XYZ
    dof rx ry rz
    limits (-90.0 60.0)
           (-90.0 90.0)
           (-90.0 90.0)
  end
  begin
     id 26 
     name rradius
     direction -1 -4.4897e-011 -1.72611e-027   
     length 3.48042   
     axis 180 30 90   XYZ
    dof rx
    limits (-10.0 170.0)
  end
  begin
     id 27 
     name rwrist
     direction -1 -4.48976e-011 1.15382e-027   
     length 1.74021   
     axis -5.52449e-016 -90 -90   XYZ
    dof ry
    limits (-180.0 0.0)
  end
  begin
     id 28
     name rhand
     direction -1 -4.48963e-011 2.30765e-027   
     length 0.618713   
     axis -1.47248e-015 -90 -90   XYZ
    dof rx rz
    limits (-90.0 90.0)
           (-45.0 45.0)
  end
  begin
     id 29
     name rfingers
     direction -1 -4.4888e-011 4.61529e-027   
     length 0.498823   
     axis -2.94495e-015 -90 -90   XYZ
    dof rx
    limits (0.0 90.0)
  end
  begin
     id 30
     name rthumb
     direction -0.707107 -6.34968e-011 0.707107   
     length 0.716213   
     axis -90 -45 -2.85299e-015   XYZ
    dof rx rz
    limits (-45.0 45.0)
           (-45.0 45.0)
  end
:hierarchy
  begin
    root lhipjoint rhipjoint lowerback
    lhipjoint lfemur
    lfemur ltibia
    ltibia lfoot
    lfoot ltoes
    rhipjoint rfemur
    rfemur rtibia
    rtibia rfoot
    rfoot rtoes
    lowerback upperback
    upperback thorax
    thorax lowerneck lclavicle rclavicle
    lowerneck upperneck
    upperneck head
    lclavicle lhumerus
    lhumerus lradius
    lradius lwrist
    lwrist lhand lthumb
    lhand lfingers
    rclavicle rhumerus
    rhumerus rradius
    rradius rwrist
    rwrist rhand rthumb
    rhand rfingers
  end

#!OML:ASF G:\JayActor3\Patient Classification 1\Patient 1\Session 5\male.ASF
:FULLY-SPECIFIED
:DEGREES
278
root -22.2932 16.1729 -6.6216 271.486 -86.472 -249.778
lowerback 28.6563 -0.171139 0.649027
upperback 5.81449 -0.63125 -0.919725
thorax -9.31407 -0.524099 -1.15035
lowerneck 3.99328 0.348634 1.97527
upperneck -17.4487 0.310266 -0.440231
head -5.92291 -0.085222 -0.472673
rclavicle -6.95746e-015 1.19271e-015
rhumerus -29.0563 4.99258 -89.3625
rradius 39.1056
rwrist -5.65416
rhand -20.948 -6.25073
rfingers 7.12502
rthumb 5.42456 -36.1613
lclavicle -6.95746e-015 1.19271e-015
lhumerus -29.238 -6.47959 87.6554
lradius 36.574
lwrist 25.6989
lhand -20.6997 9.12587
lfingers 7.12502
lthumb 5.66433 39.0302
rfemur -67.0537 -0.653748 21.578
rtibia 39.0344
rfoot 3.90665 -14.9736
rtoes 4.81712
lfemur -40.4877 5.73812 -29.6053
ltibia 52.5472
lfoot -22.2516 -0.00954647
ltoes -11.3684
279
root -22.171 16.1706 -6.59397 267.741 -86.3811 -246.107
lowerback 28.7351 -0.124133 0.634599
upperback 5.83974 -0.586307 -0.968855
thorax -9.32375 -0.505444 -1.2128
lowerneck 3.97713 0.365993 1.97364
upperneck -17.4331 0.322395 -0.509822
head -5.91476 -0.0738737 -0.495077
rclavicle -8.34896e-015 -2.78299e-014
rhumerus -29.0144 5.07171 -89.3785
rradius 39.159
rwrist -5.65622
rhand -20.9288 -6.23528
rfingers 7.12502
rthumb 5.44307 -36.1454
lclavicle -8.34896e-015 -2.78299e-014
lhumerus -29.2356 -6.51735 87.6394
lradius 36.5818
lwrist 25.6905
lhand -20.637 9.15307
lfingers 7.12502
lthumb 5.72485 39.0557
rfemur -67.178 -0.625008 21.2417
rtibia 38.7229
rfoot 3.87589 -14.6367
rtoes 3.97833
lfemur -40.5883 5.55594 -29.7584
ltibia 52.0747
lfoot -22.43 0.342363
ltoes -10.7186
280
root -22.0508 16.1651 -6.56635 263.894 -86.2724 -242.332
lowerback 28.7992 -0.0764387 0.615951
upperback 5.8637 -0.54189 -1.02016
thorax -9.32744 -0.486881 -1.2752
lowerneck 3.96167 0.386198 1.9644
upperneck -17.417 0.339244 -0.569946
head -5.90658 -0.0604426 -0.513513
rclavicle 1.05356e-014 1.39149e-014
rhumerus -28.9972 5.14961 -89.4055
rradius 39.2561
rwrist -5.71102
rhand -20.8738 -6.34881
rfingers 7.12502
rthumb 5.49623 -36.2575
lclavicle 1.05356e-014 1.39149e-014
lhumerus -29.2533 -6.55374 87.6142
lradius 36.5847
lwrist 25.6789
lhand -20.5699 9.19223
lfingers 7.12502
lthumb 5.78961 39.0931
rfemur -67.3224 -0.588328 20.887
rtibia 38.5519
rfoot 3.56487 -14.0058
rtoes 2.81792
lfemur -40.7151 5.41329 -29.9306
ltibia 51.6541
lfoot -22.6235 0.733696
ltoes -9.96342
281
root -21.9329 16.1552 -6.53919 260.084 -86.1453 -238.598
lowerback 28.8566 -0.0283098 0.595187
upperback 5.8857 -0.497728 -1.07354
thorax -9.33001 -0.468372 -1.3387
lowerneck 3.94457 0.406319 1.95742
upperneck -17.3935 0.356331 -0.630244
head -5.89577 -0.0468979 -0.532373
rclavicle 2.08724e-014 3.04141e-014
rhumerus -29.0005 5.22526 -89.4415
rradius 39.3792
rwrist -5.82044
rhand -20.8316 -6.53226
rfingers 7.12502
rthumb 5.53696 -36.4399
lclavicle 2.08724e-014 3.04141e-014
lhumerus -29.2919 -6.59018 87.5798
lradius 36.5763
lwrist 25.6617
lhand -20.4966 9.24192
lfingers 7.12502
lthumb 5.86033 39.1409
rfemur -67.4843 -0.555941 20.5461
rtibia 38.5773
rfoot 3.01431 -13.0348
rtoes 1.76939
lfemur -40.8699 5.31761 -30.1279
ltibia 51.3035
lfoot -22.8402 1.18883
ltoes -9.1495
282
root -21.8174 16.1412 -6.51321 256.359 -86.0119 -234.956
lowerback 28.9061 0.016626 0.572671
upperback 5.90684 -0.457534 -1.12199
thorax -9.32958 -0.451569 -1.3943
lowerneck 3.92646 0.430498 1.95647
upperneck -17.3589 0.378773 -0.697766
head -5.88115 -0.0303718 -0.55482
rclavicle -2.18663e-015 5.96354e-015
rhumerus -29.0125 5.31391 -89.4871
rradius 39.4881
rwrist -5.95059
rhand -20.8265 -6.69531
rfingers 7.12502
rthumb 5.5419 -36.6028
lclavicle -2.18663e-015 5.96354e-015
lhumerus -29.3485 -6.60982 87.5334
lradius 36.5511
lwrist 25.6412
lhand -20.425 9.28798
lfingers 7.12502
lthumb 5.92946 39.185
rfemur -67.6731 -0.522373 20.2422
rtibia 38.8586
rfoot 2.29208 -11.7512
rtoes 0.10493
lfemur -41.0537 5.26808 -30.3324
ltibia 51.0335
lfoot -23.0799 1.69248
ltoes -8.26532
283
root -21.7038 16.1234 -6.48881 252.797 -85.8689 -231.489
lowerback 28.9597 0.0594365 0.544359
upperback 5.92643 -0.421324 -1.166
thorax -9.33298 -0.43647 -1.44018
lowerneck 3.90865 0.457488 1.96575
upperneck -17.3163 0.404367 -0.777842
head -5.86398 -0.0118919 -0.583095
rclavicle 3.97569e-016 3.18055e-015
rhumerus -29.0374 5.39686 -89.5358
rradius 39.594
rwrist -6.07461
rhand -20.8431 -6.82944
rfingers 7.12502
rthumb 5.52583 -36.7374
lclavicle 3.97569e-016 3.18055e-015
lhumerus -29.4221 -6.61704 87.4765
lradius 36.5059
lwrist 25.6126
lhand -20.3651 9.33744
lfingers 7.12502
lthumb 5.98735 39.2328
rfemur -67.8969 -0.488673 19.9828
rtibia 39.4531
rfoot 1.42926 -10.2356
rtoes -1.8801
lfemur -41.2643 5.25428 -30.5419
ltibia 50.846
lfoot -23.3347 2.25229
ltoes -7.4277
284
root -21.5918 16.1028 -6.46615 249.459 -85.7256 -228.264
lowerback 29.0201 0.0976599 0.517901
upperback 5.94664 -0.389911 -1.20353
thorax -9.33907 -0.423668 -1.47817
lowerneck 3.88671 0.486793 1.9799
upperneck -17.265 0.432862 -0.863626
head -5.84323 0.00822793 -0.614101
rclavicle -9.54166e-015 -1.70955e-014
rhumerus -29.0613 5.47496 -89.5858
rradius 39.6585
rwrist -6.17404
rhand -20.873 -6.91923
rfingers 7.12502
rthumb 5.49697 -36.8279
lclavicle -9.54166e-015 -1.70955e-014
lhumerus -29.5078 -6.61271 87.4094
lradius 36.4383
lwrist 25.5751
lhand -20.3163 9.38466
lfingers 7.12502
lthumb 6.03447 39.2787
rfemur -68.1545 -0.450138 19.7649
rtibia 40.395
rfoot 0.422912 -8.58466
rtoes -4.52831
lfemur -41.4956 5.25481 -30.7372
ltibia 50.7361
lfoot -23.5925 2.85548
ltoes -6.69344
285
root -21.4813 16.0804 -6.44516 246.444 -85.5874 -225.381
lowerback 29.092 0.126525 0.498366
upperback 5.96874 -0.367943 -1.23421
thorax -9.3489 -0.415487 -1.50913
lowerneck 3.8634 0.519016 2.0011
upperneck -17.2119 0.464421 -0.959838
head -5.82155 0.0301289 -0.649708
rclavicle -2.82274e-014 -4.11484e-014
rhumerus -29.0878 5.53422 -89.6324
rradius 39.6994
rwrist -6.22306
rhand -20.9057 -6.96379
rfingers 7.12502
rthumb 5.46535 -36.8733
lclavicle -2.82274e-014 -4.11484e-014
lhumerus -29.6038 -6.59689 87.3342
lradius 36.3497
lwrist 25.525
lhand -20.2789 9.42886
lfingers 7.12502
lthumb 6.07052 39.3219
rfemur -68.4377 -0.40411 19.5674
rtibia 41.6928
rfoot -0.727819 -6.90035
rtoes -7.89535
lfemur -41.7374 5.23925 -30.9028
ltibia 50.6926
lfoot -23.8405 3.47103
ltoes -6.11071
286
root -21.3719 16.0571 -6.42594 243.74 -85.4523 -222.82
lowerback 29.1683 0.147592 0.479672
upperback 5.9924 -0.355314 -1.26036
thorax -9.35931 -0.411675 -1.53215
lowerneck 3.841 0.553791 2.0227
upperneck -17.1648 0.499371 -1.05607
head -5.80185 0.0534859 -0.685567
rclavicle 1.23246e-014 5.02925e-014
rhumerus -29.1123 5.5756 -89.6774
rradius 39.7105
rwrist -6.22067
rhand -20.9206 -6.94994
rfingers 7.12502
rthumb 5.45105 -36.8598
lclavicle 1.23246e-014 5.02925e-014
lhumerus -29.7049 -6.5726 87.25
lradius 36.2399
lwrist 25.4581
lhand -20.2599 9.49062
lfingers 7.12502
lthumb 6.08895 39.3831
rfemur -68.7446 -0.331369 19.356
rtibia 43.3202
rfoot -2.05475 -5.28417
rtoes -11.6955
lfemur -41.9966 5.18275 -31.028
ltibia 50.7059
lfoot -24.0632 4.0709
ltoes -5.64385
287
root -21.2637 16.0337 -6.40819 241.385 -85.3249 -220.622
lowerback 29.2534 0.157928 0.467922
upperback 6.01667 -0.354097 -1.28363
thorax -9.37372 -0.41336 -1.55188
lowerneck 3.82369 0.589092 2.04864
upperneck -17.1272 0.535709 -1.15011
head -5.78591 0.0768929 -0.721538
rclavicle 1.70955e-014 1.53064e-014
rhumerus -29.1361 5.59833 -89.721
rradius 39.7027
rwrist -6.18789
rhand -20.9052 -6.93771
rfingers 7.12502
rthumb 5.46584 -36.8472
lclavicle 1.70955e-014 1.53064e-014
lhumerus -29.8105 -6.5448 87.1584
lradius 36.1093
lwrist 25.3738
lhand -20.2607 9.56145
lfingers 7.12502
lthumb 6.08816 39.454
rfemur -69.0542 -0.23545 19.1155
rtibia 45.2286
rfoot -3.55211 -3.82864
rtoes -15.398
lfemur -42.2647 5.06137 -31.1049
ltibia 50.7666
lfoot -24.25 4.65461
ltoes -5.28336
288
root -21.1566 16.0109 -6.39184 239.361 -85.2032 -218.759
lowerback 29.3416 0.159156 0.458267
upperback 6.04215 -0.363753 -1.30549
thorax -9.38856 -0.420143 -1.56732
lowerneck 3.80888 0.625469 2.06967
upperneck -17.1004 0.574983 -1.23028
head -5.77378 0.100803 -0.752511
rclavicle -3.04141e-014 -5.78463e-014
rhumerus -29.1621 5.59893 -89.7632
rradius 39.6898
rwrist -6.12548
rhand -20.8774 -6.92499
rfingers 7.12502
rthumb 5.49272 -36.8338
lclavicle -3.04141e-014 -5.78463e-014
lhumerus -29.9106 -6.51078 87.059
lradius 35.9574
lwrist 25.2747
lhand -20.2651 9.66174
lfingers 7.12502
lthumb 6.08392 39.5544
rfemur -69.3575 -0.108891 18.8226
rtibia 47.3541
rfoot -5.19441 -2.60842
rtoes -18.5373
lfemur -42.5457 4.86897 -31.1362
ltibia 50.869
lfoot -24.3916 5.20827
ltoes -4.96566
289
root -21.0508 15.9886 -6.37679 237.683 -85.092 -217.246
lowerback 29.437 0.150973 0.455208
upperback 6.06708 -0.383316 -1.32685
thorax -9.40783 -0.431672 -1.58245
lowerneck 3.79859 0.658908 2.0896
upperneck -17.0842 0.612553 -1.29375
head -5.76587 0.122542 -0.777966
rclavicle 4.96962e-015 -4.37326e-015
rhumerus -29.19 5.577 -89.8019
rradius 39.6642
rwrist -6.05607
rhand -20.867 -6.92126
rfingers 7.12502
rthumb 5.50273 -36.8298
lclavicle 4.96962e-015 -4.37326e-015
lhumerus -30.002 -6.47139 86.9526
lradius 35.7842
lwrist 25.1542
lhand -20.2661 9.78855
lfingers 7.12502
lthumb 6.08296 39.6812
rfemur -69.6305 0.0293312 18.4996
rtibia 49.6295
rfoot -6.90635 -1.64278
rtoes -20.3748
lfemur -42.8432 4.61096 -31.1301
ltibia 51.0117
lfoot -24.4832 5.73693
ltoes -4.66531
290
root -20.9464 15.9675 -6.3631 236.302 -84.9971 -216.028
lowerback 29.5394 0.13258 0.460643
upperback 6.08926 -0.412888 -1.34676
thorax -9.43396 -0.447958 -1.59723
lowerneck 3.78671 0.690077 2.11196
upperneck -17.0691 0.649345 -1.34329
head -5.75806 0.142688 -0.799378
rclavicle 6.55989e-015 3.3694e-014
rhumerus -29.2222 5.53417 -89.8383
rradius 39.621
rwrist -5.97761
rhand -20.8957 -6.90358
rfingers 7.12502
rthumb 5.47503 -36.8129
lclavicle 6.55989e-015 3.3694e-014
lhumerus -30.0829 -6.42089 86.8378
lradius 35.5916
lwrist 25.0134
lhand -20.2584 9.92267
lfingers 7.12502
lthumb 6.09032 39.8151
rfemur -69.8559 0.165314 18.1721
rtibia 51.9943
rfoot -8.57731 -0.948457
rtoes -21.6004
lfemur -43.1612 4.30934 -31.0966
ltibia 51.189
lfoot -24.5195 6.25127
ltoes -4.37505
291
root -20.8432 15.9482 -6.35105 235.111 -84.9243 -214.986
lowerback 29.6389 0.10782 0.48003
upperback 6.10799 -0.445362 -1.36294
thorax -9.46267 -0.465683 -1.61482
lowerneck 3.77276 0.716217 2.13908
upperneck -17.0573 0.681243 -1.38154
head -5.75102 0.159214 -0.81772
rclavicle -4.07509e-015 -1.59028e-015
rhumerus -29.2567 5.46379 -89.8677
rradius 39.5635
rwrist -5.90864
rhand -20.9523 -6.868
rfingers 7.12502
rthumb 5.42041 -36.7787
lclavicle -4.07509e-015 -1.59028e-015
lhumerus -30.1479 -6.36153 86.7176
lradius 35.3837
lwrist 24.8505
lhand -20.2483 10.0573
lfingers 7.12502
lthumb 6.10007 39.9495
rfemur -70.0356 0.299672 17.8544
rtibia 54.3941
rfoot -10.0876 -0.52565
rtoes -22.4338
lfemur -43.5128 3.99438 -31.0421
ltibia 51.3951
lfoot -24.4987 6.74664
ltoes -4.13211
292
root -20.7413 15.9318 -6.34079 234.029 -84.8722 -214.032
lowerback 29.7259 0.0800743 0.507881
upperback 6.12247 -0.477639 -1.37407
thorax -9.49005 -0.483156 -1.63165
lowerneck 3.75748 0.738926 2.16324
upperneck -17.0473 0.711218 -1.39964
head -5.74452 0.173482 -0.829105
rclavicle 1.02374e-014 2.36554e-014
rhumerus -29.2955 5.37084 -89.8912
rradius 39.4954
rwrist -5.8574
rhand -21.0181 -6.83054
rfingers 7.12502
rthumb 5.35685 -36.7428
lclavicle 1.02374e-014 2.36554e-014
lhumerus -30.1952 -6.28567 86.5921
lradius 35.1666
lwrist 24.6741
lhand -20.2431 10.1976
lfingers 7.12502
lthumb 6.10509 40.0896
rfemur -70.1716 0.430509 17.5595
rtibia 56.7882
rfoot -11.3954 -0.381992
rtoes -23.0194
lfemur -43.8994 3.69349 -30.9758
ltibia 51.6164
lfoot -24.4226 7.21535
ltoes -3.93867
